<?xml version="1.0" encoding="utf-8"?>
<!-- Generator: Adobe Illustrator 27.5.0, SVG Export Plug-In . SVG Version: 6.00 Build 0)  -->
<svg version="1.1" id="Layer_1" xmlns="http://www.w3.org/2000/svg" xmlns:xlink="http://www.w3.org/1999/xlink" x="0px" y="0px"
	 viewBox="0 0 1000 1000" style="enable-background:new 0 0 1000 1000;" xml:space="preserve">
<g style="enable-background:new    ;">
	<defs>
		<path id="SVGID_1_" style="enable-background:new    ;" d="M76.13,499.297c-0.186-11.318,0.266-26.468,1.726-37.693
			c1.319-10.141,2.652-23.729,4.42-33.802c1.916-10.918,5.03-25.386,7.849-36.106c2.536-9.645,6.405-22.385,9.742-31.784
			c3.693-10.402,9.513-23.934,13.669-34.16c4.272-10.511,11.32-23.97,17.099-33.734c9.774-16.515,24.168-37.731,35.559-53.175
			c6.971-9.452,17.199-21.403,25.542-29.668c6.577-6.516,15.068-15.504,21.985-21.658c9.708-8.637,23.113-19.636,33.382-27.598
			c6.821-5.289,16.386-11.719,23.641-16.394c7.239-4.665,17.199-10.392,24.644-14.72c12.607-7.329,30.229-15.752,43.82-21.038
			c8.854-3.444,20.704-7.95,29.744-10.872c9.209-2.977,21.663-6.399,31.045-8.779c8.798-2.232,20.686-4.574,29.626-6.148
			c9.33-1.642,16.968-2.533,25.054-3.476c3.741-0.436,14.358-1.403,20.529-1.711c2.889-0.144,6.74-0.383,9.631-0.456
			c5.542-0.141,12.934-0.291,18.478-0.258c8.986,0.054,19.338,0.478,27.943,1.142c2.937,0.227,6.853,0.549,9.785,0.836
			c3.097,0.303,7.219,0.786,10.312,1.128c3.174,0.35,7.389,0.965,10.55,1.417c9.412,1.346,20.331,3.444,25.374,4.525
			c8.62,1.849,20.018,4.753,28.533,7.038c6.376,1.71,14.779,4.366,21.003,6.565c8.765,3.098,20.365,7.491,28.939,11.085
			c13.394,5.616,30.557,14.673,43.388,21.478c103.502,58.804,171.714,175.017,171.449,317.54
			c-0.418,224.865-171.134,430.061-381.295,458.323c210.162-28.262,380.878-233.458,381.295-458.323
			c0.265-142.523-67.947-258.736-171.449-317.54c10.045,5.866,23.47,13.733,32.804,20.675c7.026,5.225,16.596,11.934,23.378,17.472
			c8.534,6.97,19.948,16.298,27.634,24.192c6.532,6.709,15.529,15.385,21.767,22.368c7.254,8.12,16.592,19.26,23.173,27.935
			c5.813,7.662,13.231,18.14,18.417,26.239c5.821,9.092,13.287,21.428,18.244,31.018c4.5,8.706,10.335,20.412,14.219,29.41
			c4.293,9.947,9.525,23.43,13.014,33.687c6.465,19.009,12.448,45.207,16.303,64.912c2.141,10.942,3.634,25.774,4.548,36.886
			c0.852,10.358,0.99,24.231,1.331,34.619c0.415,12.639-0.624,29.545-2.146,42.099c-1.229,10.135-2.893,23.659-4.761,33.695
			c-2.028,10.889-5.291,25.313-8.215,35.996c-2.629,9.606-6.626,22.288-10.054,31.639c-3.801,10.367-9.746,23.85-14.022,34.03
			c-3.779,8.997-9.994,20.474-14.82,28.956c-5.557,9.765-13.748,22.323-19.76,31.814c-6.436,10.161-16.434,22.777-24.172,31.986
			c-11.925,14.193-28.928,32.285-42.874,44.497c-9.864,8.637-23.515,19.586-33.98,27.485c-6.842,5.165-16.469,11.356-23.658,16.026
			c-7.571,4.918-18.093,10.801-26.027,15.111c-6.38,3.466-15.024,7.848-21.66,10.794c-9.482,4.21-22.218,9.643-31.952,13.232
			c-9.132,3.367-21.514,7.304-30.885,9.936c-18.561,5.215-34.5,8.344-44.604,10.051c-11.237,1.898-17.595,2.621-24.957,3.457
			c-4.333,0.492-14.862,1.427-20.529,1.711c-8.884,0.444-13.343,0.667-18.918,0.687c-2.759,0.01-6.438,0.049-9.197,0.027
			c-2.755-0.022-6.427-0.121-9.181-0.172c-2.776-0.052-6.477-0.212-9.249-0.374c-5.75-0.336-13.409-0.921-19.148-1.417
			c-3.144-0.272-7.321-0.785-10.456-1.142c-1.596-0.181-10.188-1.197-22.699-3.386c-21.688-3.795-39.737-8.965-45.228-10.597
			c-5.29-1.572-12.338-3.702-17.533-5.564c-8.752-3.135-20.371-7.476-28.939-11.085c-13.385-5.638-30.726-14.363-43.388-21.478
			c-11.637-6.54-26.85-15.905-37.486-23.971c-8.967-6.801-21.24-15.528-29.52-23.15c-6.794-6.255-16.109-14.328-22.621-20.876
			c-7.723-7.765-17.664-18.482-24.792-26.796c-12.462-14.536-26.941-35.67-37.52-51.628c-6.043-9.116-12.802-22.088-17.797-31.818
			c-4.935-9.614-11.167-22.661-14.822-32.831c-6.74-18.754-15.196-44.022-19.771-63.418c-4.201-17.811-7.157-42.117-9.169-60.306
			C76.318,523.585,76.301,509.689,76.13,499.297z"/>
	</defs>
	<clipPath id="SVGID_00000141450300978684207000000009218892609729351068_">
		<use xlink:href="#SVGID_1_"  style="overflow:visible;"/>
	</clipPath>
	<g style="clip-path:url(#SVGID_00000141450300978684207000000009218892609729351068_);">
		<path d="M77.451,466.398c0.014-0.148,0.172-2.082,0.194-2.379c-0.001,0.006-0.001,0.013-0.002,0.019l-0.192,2.355
			C77.452,466.395,77.451,466.397,77.451,466.398"/>
		<path d="M76.722,517.908c0.014,0.258,0.042,0.708,0.073,0.819c0.092-0.11-0.056-2.567-0.095-2.703
			c-0.01,0.013-0.016,0.036-0.018,0.052C76.66,516.427,76.692,517.359,76.722,517.908"/>
		<path d="M82.669,568.922c0.052,0.272,0.126,0.614,0.184,0.698c0.005,0,0.012,0,0.017,0c0.072-0.213-0.233-2.127-0.371-2.328
			c-0.005,0-0.012,0.001-0.017,0.001c-0.005,0.014-0.008,0.034-0.01,0.049C82.458,567.649,82.579,568.451,82.669,568.922"/>
		<path d="M94.956,617.809c0.048,0.145,0.168,0.484,0.235,0.51c0.104-0.049-0.327-1.599-0.466-1.675
			c-0.003-0.002-0.007-0.002-0.01-0.003c-0.012,0.007-0.013,0.013-0.018,0.04C94.691,616.904,94.845,617.474,94.956,617.809"/>
		<path d="M113.171,664.199c0.083,0.172,0.151,0.265,0.165,0.227c0.039-0.107-0.28-0.834-0.342-0.778
			c-0.004,0.004-0.005,0.012-0.006,0.017C112.987,663.77,113.094,664.041,113.171,664.199"/>
		<path d="M115.92,679.519c0.242,0.512,0.549,1.153,0.636,1.297c-0.055-0.278-1.924-4.207-2.037-4.393
			c0.006,0.032,0.02,0.073,0.032,0.103C114.803,677.126,115.503,678.637,115.92,679.519"/>
		<path d="M139.352,721.923c0.18,0.279,0.412,0.627,0.498,0.7c0.004-0.002,0.009-0.004,0.012-0.006
			c-0.058-0.256-1.253-2.198-1.47-2.388c-0.004,0.001-0.009,0.003-0.013,0.004c0.004,0.016,0.011,0.037,0.017,0.053
			C138.543,720.621,139.044,721.445,139.352,721.923"/>
		<path d="M167.856,760.918c0.047,0.056,0.16,0.186,0.189,0.189c0.029-0.036-0.45-0.643-0.518-0.656
			c-0.001,0.005-0.001,0.012,0.001,0.016C167.572,760.562,167.746,760.788,167.856,760.918"/>
		<path d="M208.886,807.854c0.141,0.13,0.318,0.291,0.364,0.321c-0.05-0.093-1.135-1.088-1.195-1.129
			c0.005,0.01,0.014,0.022,0.022,0.03C208.235,807.243,208.646,807.631,208.886,807.854"/>
		<polyline points="362.616,901.043 362.465,900.991 362.406,900.971 362.549,901.02 362.616,901.043 		"/>
	</g>
</g>
<g>
	<g style="enable-background:new    ;">
		<g style="enable-background:new    ;">
			<defs>
				<path id="SVGID_00000073707435525973080130000009701820226680679357_" style="enable-background:new    ;" d="M568.68,920.568
					c-0.035,0.006-3.646,0.612-9.272,1.412c-3.761,0.534-7.077,0.939-8.493,1.112c-7.445,0.909-13.482,1.416-16.725,1.688
					c-5.853,0.491-17.856,1.327-32.477,1.407c-16.361,0.09-29.405-0.853-29.952-0.893c-5.413-0.397-12.629-0.973-18.025-1.562
					c-5.593-0.61-13.027-1.634-18.596-2.432c-10.275-1.472-23.84-4.315-33.958-6.63c-7.954-1.82-18.449-4.731-26.244-7.142
					c-9.394-2.906-21.784-7.231-30.941-10.811c-8.673-3.391-19.925-8.669-28.453-12.411c-9.214-4.043-20.932-10.655-29.642-15.693
					c-8.329-4.818-19.178-11.692-27.111-17.136c-8.282-5.683-19.03-13.698-26.852-19.999c-7.582-6.106-17.127-14.921-24.459-21.325
					c-7.554-6.598-16.685-16.426-23.437-23.843c-6.609-7.261-14.749-17.53-21.068-25.045c-6.479-7.706-14.146-18.783-19.541-27.284
					c-10.001-15.758-20.509-32.53-32.272-58.668c-8.325-18.497-17.454-44.089-22.783-63.66c-2.289-8.406-4.983-19.718-6.614-28.276
					c-1.996-10.472-4.321-24.513-5.469-35.111c-2.238-20.664-2.508-48.463-2.284-69.247c0.112-10.367,1.327-24.201,3.069-34.421
					c1.693-9.931,3.566-23.245,5.663-33.098c2.123-9.975,5.123-23.283,8.391-32.945c3.176-9.39,7.093-22.027,10.662-31.274
					c3.65-9.457,9.005-21.882,13.382-31.025c12.467-26.039,25.285-45.871,33.374-57.626c11.715-17.023,26.059-35.146,42.241-52.112
					c6.613-6.934,15.703-15.932,22.839-22.326c8.282-7.422,19.873-16.689,28.513-23.691c11.485-9.307,28.073-20.132,40.892-27.494
					c6.758-3.881,15.783-9.048,22.755-12.529c9.082-4.535,21.32-10.356,30.725-14.175c12.922-5.248,22.732-8.518,30.912-11.17
					c3.071-0.996,7.18-2.281,10.284-3.17c5.925-1.695,13.847-3.879,19.809-5.441c0.121-0.032,12.503-3.249,26.093-5.802
					c12.722-2.391,24.958-3.8,25.059-3.81c1.242-0.122,2.893-0.341,4.133-0.479c1.236-0.137,2.884-0.314,4.121-0.437
					c0.001,0,0.002,0,0.002,0c4.824-0.487,8.33-0.761,8.477-0.773c9.874-0.769,14.62-0.952,19.644-1.145
					c4.359-0.167,10.501-0.262,13.079-0.263c5.034-0.002,11.745,0.102,16.777,0.249c3.879,0.113,9.048,0.396,12.921,0.645
					c3.687,0.238,8.593,0.68,12.275,0.978c7.335,0.594,17.064,1.946,24.345,3.015c5.7,0.837,13.239,2.334,18.913,3.335
					c-42.241-8.444-86.704-9.52-132.012-2.12c45.308-7.4,89.771-6.324,132.012,2.12c10.847,2.303,25.217,5.833,35.896,8.821
					c7.837,2.193,18.144,5.628,25.783,8.437c10.338,3.802,23.916,9.44,33.938,14.009c8.453,3.854,19.482,9.527,27.598,14.046
					c19.716,10.98,37.885,23.012,55.545,36.785c8.003,6.241,18.332,15.006,25.825,21.85c7.202,6.578,16.226,15.959,23.122,22.858
					c7.131,7.134,15.713,17.536,22.011,25.415c6.283,7.859,14.243,18.678,19.894,27.004c11.168,16.454,23.69,39.929,32.778,57.618
					c4.686,9.121,9.664,21.902,13.26,31.505c3.571,9.539,7.435,22.574,10.611,32.252c3.271,9.968,6.373,23.665,8.202,33.995
					c2.535,14.319,5.89,33.484,6.744,48.001c0.612,10.401,1.476,24.278,1.501,34.696c0.025,10.455-0.286,24.422-1.332,34.825
					c-2.017,20.061-5.852,46.773-10.625,66.362c-2.41,9.89-6.138,22.958-9.326,32.625c-3.194,9.685-7.835,22.491-11.929,31.831
					c-7.87,17.954-19.606,41.418-29.9,58.1c-14.86,24.082-29.431,42.449-39.037,53.617c-5.583,6.491-22.575,26.244-47.169,47.233
					c-22.629,19.312-41.263,31.484-54.968,39.932c-12.087,7.45-28.924,16.19-41.704,22.374c-6.437,3.114-15.269,6.728-21.87,9.476
					c-3.147,1.31-7.421,2.861-10.618,4.045c-8.574,3.176-23.693,8.087-38.144,11.9c-5.333,1.407-12.463,3.222-17.851,4.401
					C582.443,918.052,578.655,918.881,568.68,920.568z"/>
			</defs>
			<clipPath id="SVGID_00000008123153702398380850000002784010920953948801_">
				<use xlink:href="#SVGID_00000073707435525973080130000009701820226680679357_"  style="overflow:visible;"/>
			</clipPath>
			<g style="clip-path:url(#SVGID_00000008123153702398380850000002784010920953948801_);">
				<path d="M396.53,87.586c-0.092,0.02-0.186,0.034-0.276,0.064c0.049-0.004,0.565-0.121,0.586-0.128
					C396.734,87.53,396.633,87.563,396.53,87.586"/>
				<path d="M400.317,86.165c-0.22,0.046-0.443,0.082-0.66,0.144c0.062-0.001,1.272-0.256,1.347-0.278
					C400.956,86.032,400.382,86.151,400.317,86.165"/>
				<path d="M405.265,84.689c-0.395,0.078-0.872,0.176-0.986,0.204c0.123-0.009,1.925-0.377,1.938-0.38
					C406.128,84.519,405.409,84.661,405.265,84.689"/>
				<path d="M411.301,83.188c-0.51,0.097-0.947,0.184-1.021,0.202c0.103-0.012,1.818-0.34,1.905-0.359
					c0.003-0.001,0.008-0.002,0.011-0.003C412.097,83.037,411.309,83.186,411.301,83.188"/>
				<path d="M418.332,81.689c-0.266,0.049-0.532,0.097-0.798,0.151c0.052-0.008,1.39-0.254,1.4-0.256
					c0.004-0.001,0.009-0.002,0.013-0.003C418.74,81.604,418.537,81.652,418.332,81.689"/>
				<path d="M426.294,80.216c-0.17,0.031-0.34,0.065-0.511,0.093c0.266-0.069,0.539-0.1,0.808-0.147
					c0.006-0.001,0.014-0.002,0.02-0.003C426.505,80.179,426.399,80.197,426.294,80.216"/>
				<path d="M338.681,107.423c-0.128,0.051-0.375,0.153-0.399,0.173c0.052,0.003,0.839-0.321,0.866-0.343
					C339.112,107.251,338.698,107.416,338.681,107.423"/>
				<path d="M341.256,105.016c-0.437,0.169-1.129,0.442-1.244,0.505c0.153-0.019,2.425-0.91,2.548-0.977
					C342.448,104.557,341.378,104.969,341.256,105.016"/>
				<path d="M346.353,102.4c-1.077,0.408-2.103,0.807-2.35,0.91c0.222-0.066,4.549-1.714,4.58-1.727
					C348.345,101.648,346.373,102.393,346.353,102.4"/>
				<path d="M353.844,99.635c-2.166,0.818-2.819,1.065-3.026,1.129c0.319-0.176,4.496-1.733,5.544-2.089
					c0.011-0.004,0.026-0.008,0.037-0.012C355.568,99.043,354.696,99.313,353.844,99.635"/>
				<path d="M288.361,134.435c-0.052,0.031-0.512,0.302-0.573,0.382c0.002,0.003,0.004,0.006,0.005,0.008
					c0.163-0.024,1.317-0.697,1.328-0.775C289.019,134.049,288.368,134.431,288.361,134.435"/>
				<path d="M288.379,131.274c-0.592,0.334-1.748,1.006-1.886,1.154c0.193,0.041,3.866-2.09,4.013-2.247
					C290.389,130.159,288.931,130.962,288.379,131.274"/>
				<path d="M292.315,127.736c-1.438,0.795-2.956,1.657-3.315,1.882c0.419-0.175,6.479-3.566,6.522-3.593
					C295.402,126.045,293.269,127.208,292.315,127.736"/>
				<path d="M247.18,168.795c-0.316,0.261-0.502,0.474-0.414,0.474c0.186,0,1.23-0.841,1.177-0.947
					c-0.001-0.003-0.005-0.005-0.008-0.007C247.833,168.3,247.432,168.586,247.18,168.795"/>
				<path d="M242.068,165.258c-0.608,0.474-1.755,1.421-1.748,1.614c0.282,0.128,4.146-2.837,4.134-3.172
					C244.303,163.631,243.098,164.455,242.068,165.258"/>
				<path d="M242.303,161.139c-1.203,0.906-3.092,2.381-3.366,2.73c0.516-0.081,6.757-4.9,7.053-5.271
					c-0.01-0.005-0.022-0.011-0.032-0.016C245.515,158.786,243.784,160.023,242.303,161.139"/>
				<path d="M219.088,209.26c-0.158,0.185-0.213,0.328-0.125,0.324c0.178-0.007,0.68-0.551,0.603-0.654
					c-0.004-0.006-0.014-0.009-0.02-0.012C219.43,208.912,219.204,209.125,219.088,209.26"/>
				<path d="M206.391,205.777c-0.84,0.902-1.285,1.639-0.991,1.643c0.61,0.009,3.396-2.884,3.138-3.258
					c-0.007-0.01-0.021-0.017-0.03-0.025C208.159,204.077,207.06,205.06,206.391,205.777"/>
				<path d="M200.401,201.472c-0.92,0.931-2.644,2.795-2.586,3.185c0.506,0.274,6.371-5.555,6.275-6.238
					C203.819,198.273,201.964,199.89,200.401,201.472"/>
				<path d="M200.935,196.461c-1.864,1.827-4.05,4.062-4.429,4.607c0.521-0.098,8.625-8.197,9.078-8.838
					C205.181,192.303,201.108,196.291,200.935,196.461"/>
				<path d="M185.188,251.558c-0.426,0.653-0.491,1.156-0.139,1.078c0.657-0.146,1.888-1.971,1.48-2.194
					c-0.012-0.006-0.029-0.01-0.041-0.015C186.116,250.403,185.504,251.074,185.188,251.558"/>
				<path d="M170.536,247.51c-1.294,1.803-1.821,3.233-1.127,3.06c1.071-0.268,5.258-5.417,4.36-6.098
					C173.128,244.354,171.492,246.177,170.536,247.51"/>
				<path d="M163.846,242.503c-1.095,1.436-3.129,4.315-2.991,4.928c0.727,0.451,7.712-8.526,7.473-9.606
					C167.897,237.561,165.448,240.402,163.846,242.503"/>
				<path d="M164.721,236.682c-2.304,2.926-4.897,6.33-5.085,6.732c0.675-0.544,9.456-11.781,10.116-12.816
					C169.451,230.677,164.768,236.622,164.721,236.682"/>
				<path d="M180.669,301.186c-0.065,0.154-0.043,0.293,0.083,0.248c0.187-0.067,0.361-0.452,0.235-0.521
					c-0.008-0.004-0.02-0.007-0.029-0.009C180.842,300.904,180.717,301.072,180.669,301.186"/>
				<path d="M156.299,297.972c-0.696,1.431-0.6,2.491,0.198,2.181c1.337-0.519,3.041-4.031,2.17-4.473
					c-0.025-0.013-0.063-0.021-0.09-0.031C157.812,295.595,156.784,296.975,156.299,297.972"/>
				<path d="M140.15,293.415c-1.399,2.591-1.82,4.651-0.901,4.409c1.422-0.374,6.095-7.763,4.706-8.757
					C143.047,288.888,141.183,291.502,140.15,293.415"/>
				<path d="M132.879,287.787c-2.192,3.797-3.468,6.901-2.732,6.641c1.152-0.407,7.888-11.195,7.412-12.883
					C137.027,281.179,134.502,284.975,132.879,287.787"/>
				<path d="M130.423,287.345l-1.509,2.635c0.329-0.529,9.875-16.496,9.938-16.603c0.013-0.023,0.031-0.054,0.044-0.078
					c-0.018,0.028-0.043,0.064-0.061,0.092L130.423,287.345"/>
				<path d="M159.743,351.412c-0.137,0.478,0.043,0.801,0.358,0.64c0.489-0.249,0.753-1.27,0.357-1.383
					c-0.012-0.003-0.029-0.005-0.041-0.008C160.084,350.659,159.827,351.12,159.743,351.412"/>
				<path d="M133.163,347.897c-0.674,1.977-0.336,3.444,0.696,3.019c1.733-0.715,3.377-5.561,2.094-6.173
					c-0.037-0.018-0.091-0.03-0.13-0.043C134.767,344.621,133.632,346.522,133.163,347.897"/>
				<path d="M115.701,342.913c-1.372,3.558-1.45,6.18-0.164,5.501c1.998-1.055,5.747-9.817,4.045-10.981
					C118.453,337.198,116.633,340.496,115.701,342.913"/>
				<path d="M107.956,336.756c-1.266,3.038-2.932,7.721-2.334,8.17c1.477-0.251,7.269-13.984,6.665-15.8
					c-0.024-0.018-0.057-0.043-0.082-0.061C111.38,329.206,109.212,333.742,107.956,336.756"/>
				<path d="M105.649,337.626c2.082-5.013,4.991-11.63,6.601-15.131L105.649,337.626"/>
				<path d="M144.397,404.513c-0.142,0.858,0.281,1.398,0.807,1.032c0.698-0.486,0.954-2.158,0.175-2.303
					C144.847,403.238,144.485,403.983,144.397,404.513"/>
				<path d="M116.175,400.75c-0.523,2.521,0.217,4.294,1.466,3.515c1.83-1.143,3.117-6.703,1.179-7.328
					C117.561,396.839,116.515,399.108,116.175,400.75"/>
				<path d="M97.65,395.423c-1.01,4.129-0.72,7.177,0.608,6.394c2.07-1.219,4.974-11.402,2.913-12.763
					C99.885,388.776,98.338,392.611,97.65,395.423"/>
				<path d="M89.544,388.848c-0.802,2.958-2.14,8.698-1.466,9.246c1.423-0.275,5.702-15.806,4.924-17.869
					c-0.026-0.021-0.06-0.05-0.086-0.071C92.069,380.313,90.34,385.911,89.544,388.848"/>
				<path d="M135.211,459.867c-0.051,1.079,0.572,1.702,1.149,1.149c0.676-0.647,0.683-2.457-0.183-2.618
					C135.559,458.395,135.24,459.255,135.211,459.867"/>
				<path d="M105.778,455.928c-0.235,2.913,0.912,4.831,2.191,3.664c1.672-1.524,2.068-7.143,0.103-7.767
					C106.727,451.719,105.921,454.16,105.778,455.928"/>
				<path d="M86.491,450.359c-0.486,4.391,0.201,7.639,1.441,6.813c1.944-1.293,3.568-12.125,1.297-13.579
					C87.815,443.278,86.799,447.576,86.491,450.359"/>
				<path d="M78.076,443.481c-0.426,3.189-1.055,9.376-0.388,9.961c1.275-0.293,3.572-17.015,2.643-19.24
					c-0.026-0.023-0.061-0.054-0.087-0.077C79.495,434.293,78.499,440.318,78.076,443.481"/>
				<path d="M132.581,516.903c0.066,0.974,0.695,1.537,1.159,1.038c0.546-0.587,0.362-2.23-0.442-2.376
					C132.74,515.561,132.543,516.345,132.581,516.903"/>
				<path d="M102.399,512.867c0.129,2.873,1.465,4.765,2.554,3.614c1.424-1.505,1.125-7.049-0.842-7.662
					C102.8,508.712,102.32,511.122,102.399,512.867"/>
				<path d="M82.624,507.159c0.098,4.688,1.277,7.988,2.382,6.662c1.61-1.933,1.536-12.109-0.634-13.464
					C82.989,500.041,82.566,504.361,82.624,507.159"/>
				<path d="M74.013,500.115c0.003,3.178,0.17,9.34,0.775,9.914c1.212-1.101,0.899-17.298,0.042-19.179
					c-0.024-0.023-0.056-0.054-0.08-0.077C74.058,491.402,74.011,498.082,74.013,500.115"/>
				<path d="M136.799,574.996c0.143,0.766,0.71,1.184,0.994,0.733c0.311-0.494,0.013-1.637-0.578-1.743
					C136.797,573.983,136.72,574.575,136.799,574.996"/>
				<path d="M106.452,570.938c0.438,2.541,1.807,4.216,2.616,3.2c1.062-1.334,0.176-6.253-1.596-6.798
					C106.324,567.246,106.185,569.388,106.452,570.938"/>
				<path d="M86.521,565.202c0.659,4.271,2.078,7.281,2.867,6.078c1.158-1.767-0.153-11.088-2.199-12.334
					C86.021,558.673,86.095,562.44,86.521,565.202"/>
				<path d="M77.773,558.123c0.408,2.984,1.317,8.77,1.834,9.306c0.761-1.03-1.55-16.328-2.43-18.111
					c-0.021-0.021-0.048-0.05-0.069-0.072C76.681,549.853,77.509,556.194,77.773,558.123"/>
				<path d="M147.775,631.362c0.115,0.365,0.411,0.559,0.529,0.347c0.127-0.231-0.083-0.769-0.382-0.821
					C147.738,630.886,147.702,631.133,147.775,631.362"/>
				<path d="M117.857,627.35c0.593,1.929,1.87,3.159,2.317,2.229c0.537-1.117-0.589-4.449-1.898-4.84
					C117.411,624.663,117.51,626.22,117.857,627.35"/>
				<path d="M98.073,621.686c1.004,3.414,2.464,5.837,2.948,4.892c0.711-1.39-1.377-8.841-3.129-9.868
					C96.938,616.473,97.424,619.477,98.073,621.686"/>
				<path d="M89.297,614.702c0.738,2.654,2.093,7.272,2.494,7.741c0.34-0.788-3.32-13.475-4.137-14.998
					c-0.016-0.019-0.038-0.045-0.054-0.064C87.416,607.845,88.852,613.102,89.297,614.702"/>
				<path d="M135.99,680.21c0.479,1.06,1.285,1.738,1.461,1.229c0.21-0.607-0.671-2.432-1.425-2.651
					C135.536,678.742,135.71,679.592,135.99,680.21"/>
				<path d="M116.615,674.73c1.115,2.513,2.441,4.306,2.677,3.621c0.335-0.972-2.063-6.52-3.381-7.265
					C115.198,670.898,115.893,673.104,116.615,674.73"/>
				<path d="M107.939,667.969c0.891,2.082,2.477,5.707,2.767,6.091c0.018-0.572-4.305-10.519-5.015-11.744
					c-0.012-0.016-0.028-0.037-0.04-0.053C105.65,662.597,107.402,666.715,107.939,667.969"/>
				<path d="M160.165,729.095c0.182,0.297,0.43,0.482,0.458,0.341c0.033-0.166-0.291-0.67-0.512-0.732
					C159.967,728.689,160.068,728.936,160.165,729.095"/>
				<path d="M141.621,723.894c0.865,1.42,1.771,2.439,1.829,2.057c0.082-0.541-1.796-3.679-2.591-4.112
					c-0.386-0.108,0.139,0.972,0.51,1.627C141.442,723.596,141.543,723.767,141.621,723.894"/>
				<path d="M135.544,721.525c0.045,0.074,0.09,0.148,0.138,0.22c-0.193-0.392-4.234-7.176-4.87-8.195
					c-0.008-0.012-0.018-0.027-0.026-0.039c0.031,0.062,0.066,0.121,0.1,0.181L135.544,721.525"/>
				<path d="M172.416,768.73c0.249,0.311,0.642,0.742,0.735,0.726c0.077-0.113-0.851-1.271-1.142-1.424
					c-0.009-0.003-0.022-0.005-0.031-0.003C171.933,768.095,172.232,768.5,172.416,768.73"/>
			</g>
		</g>
		<g style="enable-background:new    ;">
			<defs>
				<path id="SVGID_00000083808164323113123160000010626868634467030187_" style="enable-background:new    ;" d="M923.228,451.164
					c1.971,20.696,2.809,48.474,2.377,69.259c-0.293,14.073-2.288,32.823-4.788,46.675c-1.783,9.881-4.2,23.06-6.56,32.819
					c-2.383,9.856-6.089,22.874-9.237,32.513c-3.071,9.402-7.672,21.778-11.478,30.907c-3.868,9.279-9.417,21.502-14.084,30.406
					c-4.545,8.671-10.847,20.116-15.967,28.46c-5.246,8.549-12.674,19.689-18.56,27.81c-18.331,25.29-35.002,42.395-42.596,50.131
					c-6.685,6.809-16.003,15.495-23.218,21.74c-7.578,6.559-18.021,14.917-26.058,20.906c-7.258,5.409-17.224,12.239-24.874,17.076
					c-8.112,5.129-19.23,11.484-27.632,16.124c-15.806,8.728-39.131,18.794-51.713,23.303c-2.861,1.025-6.664,2.425-9.553,3.369
					c-5.737,1.875-13.391,4.374-19.197,6.025c-5.552,1.579-12.979,3.605-18.579,5.006c-5.109,1.279-11.948,2.89-17.112,3.925
					c-8.511,1.706-10.282,2.061-15.718,2.95c-4.411,0.721-7.942,1.223-9.271,1.412c-2.544,0.361-5.943,0.793-8.493,1.112
					c-4.526,0.567-10.152,1.135-16.724,1.688c-2.807,0.236-4.666,0.356-9.157,0.646c-1.546,0.1-3.609,0.195-5.155,0.277
					c-6.768,0.363-19.21,0.614-26.38,0.45c-2.646-0.061-6.174-0.112-8.819-0.213c-3.55-0.135-8.28-0.384-11.828-0.575
					c-4.017-0.217-9.363-0.674-13.369-1.048c-5.546-0.518-12.932-1.344-18.443-2.153c-7.47-1.096-17.46-2.488-24.815-4.197
					c-7.895-1.834-18.521-3.903-26.311-6.141c-12.386-3.559-28.951-8.316-40.891-13.166c-8.623-3.502-20.176-8.066-28.591-12.042
					c-9.909-4.682-22.927-11.358-32.442-16.797c-8.352-4.775-19.255-11.561-27.204-16.98c-8.565-5.839-19.832-13.89-27.803-20.517
					c-14.191-11.798-28.865-23.997-48.342-45.352c-18.951-20.778-32.666-39.974-40.834-52.419
					c-5.446-8.298-12.344-19.61-17.141-28.299c-4.932-8.935-11.062-21.102-15.265-30.402c-8.351-18.481-16.801-44.264-22.868-63.616
					c-3.149-10.044-5.813-23.873-7.798-34.211c-1.669-8.692-3.411-20.38-4.377-29.178c-2.267-20.667-2.591-48.472-2.377-69.262
					c0.106-10.354,1.293-24.172,3.018-34.382c1.678-9.935,3.535-23.254,5.617-33.112c2.1-9.945,5.377-23.115,8.311-32.846
					c4.324-14.341,11.184-35.523,23.836-62.124c13.75-28.908,27.845-49.766,32.951-57.271c17.609-25.88,35.015-44.737,41.201-51.342
					c6.551-6.995,15.631-16.004,22.7-22.475c7.407-6.78,17.753-15.294,25.517-21.663c7.109-5.831,17.148-12.906,24.785-18.025
					c8.077-5.415,19.146-12.187,27.558-17.066c6.721-3.898,15.907-8.71,22.9-12.096c7.857-3.805,18.458-8.645,26.574-11.861
					c12-4.756,20.442-7.626,30.969-10.977c8.663-2.757,21.231-6.287,29.886-8.393c5.306-1.291,12.406-2.916,17.751-4.036
					c3.987-0.835,9.334-1.801,13.351-2.48c1.428-0.241,8.172-1.31,13.557-1.995c4.083-0.519,9.163-1.166,16.672-1.85
					c15.854-1.446,28.745-1.668,30.162-1.688c8.223-0.119,10.555-0.139,14.788-0.052c9.405,0.196,9.405,0.196,20.646,0.788
					c4.017,0.212,9.366,0.645,13.369,1.048c5.543,0.558,12.92,1.431,18.443,2.153c7.487,0.978,17.4,2.771,24.815,4.197
					c160.256,32.036,288.538,170.123,309.712,353.733c26.754,231.999-127.635,448.842-344.834,484.318
					c217.199-35.476,371.588-252.319,344.834-484.318c-21.174-183.61-149.456-321.697-309.712-353.733
					c7.829,1.825,18.354,3.917,26.095,6.083c10.775,3.015,25.082,7.313,35.584,11.175c8.687,3.195,20.178,7.736,28.6,11.576
					c10.053,4.583,23.283,11.104,32.936,16.479c19.716,10.98,37.885,23.012,55.545,36.785c7.67,5.982,17.604,14.341,24.786,20.901
					c7.513,6.863,17.268,16.321,24.161,23.807c6.645,7.217,15.303,17.037,21.434,24.694c6.332,7.907,14.392,18.766,20.081,27.148
					c5.568,8.204,12.595,19.419,17.504,28.033c5.049,8.858,11.381,20.908,15.664,30.16c4.232,9.143,9.517,21.509,13.049,30.944
					c3.634,9.707,7.996,22.84,10.821,32.813c2.813,9.929,6.081,23.313,8.09,33.435C919.788,426.524,922.217,440.555,923.228,451.164
					z"/>
			</defs>
			<clipPath id="SVGID_00000111164011153218947610000018230341476365491630_">
				<use xlink:href="#SVGID_00000083808164323113123160000010626868634467030187_"  style="overflow:visible;"/>
			</clipPath>
			<g style="clip-path:url(#SVGID_00000111164011153218947610000018230341476365491630_);">
				<path style="fill:#A8A8A8;" d="M434.994,78.812c-0.068,0.013-0.136,0.031-0.206,0.036c0.005-0.005,0.203-0.041,0.275-0.052
					c0.006-0.001,0.012-0.002,0.018-0.002C435.054,78.81,435.023,78.806,434.994,78.812"/>
				<path style="fill:#A8A8A8;" d="M363.561,96.774c-0.921,0.355-3.093,1.183-3.356,1.211c0.167-0.198,4.576-1.86,5.729-2.193
					c0.017-0.004,0.041-0.01,0.058-0.014C365.931,95.83,365.861,95.888,363.561,96.774"/>
				<path style="fill:#A8A8A8;" d="M375.345,93.868c-1.227,0.496-3.131,1.217-3.348,1.171c0.178-0.295,4.16-1.81,5.236-2.081
					c0.037-0.008,0.087-0.017,0.125-0.021C377.348,92.977,377.323,93.069,375.345,93.868"/>
				<path style="fill:#A8A8A8;" d="M389.036,90.968c-1.128,0.5-2.813,1.136-3.043,1.031c0.071-0.335,3.178-1.569,4.24-1.803
					c0.156-0.027,0.181-0.028,0.222-0.008C390.439,90.233,390.391,90.368,389.036,90.968"/>
				<path style="fill:#A8A8A8;" d="M404.472,88.124c-1.13,0.589-2.565,1.026-2.517,0.766c0.05-0.271,1.866-1.144,2.975-1.361
					c0.125-0.018,0.385-0.057,0.303,0.081C405.169,87.717,404.885,87.909,404.472,88.124"/>
				<path style="fill:#A8A8A8;" d="M421.245,85.421c-0.66,0.466-1.857,0.768-1.779,0.449c0.059-0.243,0.939-0.727,1.681-0.856
					c0.506-0.064,0.389,0.132,0.316,0.219C421.43,85.272,421.366,85.336,421.245,85.421"/>
				<path style="fill:#A8A8A8;" d="M438.248,83.028c-0.202,0.273-0.925,0.418-0.966,0.194c-0.025-0.136,0.262-0.349,0.657-0.41
					C438.27,82.778,438.345,82.898,438.248,83.028"/>
				<path style="fill:#A8A8A8;" d="M455.22,80.965c0.009,0.073-0.189,0.11-0.268,0.05c-0.05-0.038-0.006-0.092,0.087-0.107
					c0.004-0.001,0.01-0.001,0.014-0.002C455.168,80.896,455.216,80.937,455.22,80.965"/>
				<path style="fill:#A8A8A8;" d="M299.967,123.904c-4.082,2.254-4.438,2.392-4.572,2.444c0.341-0.379,6.985-3.975,8.276-4.562
					c0.018-0.007,0.042-0.017,0.061-0.024C303.647,121.837,303.542,121.929,299.967,123.904"/>
				<path style="fill:#A8A8A8;" d="M311.093,119.858c-0.5,0.282-4.9,2.752-5.548,2.803c0.039-0.474,7.296-4.447,9.184-5.135
					c0.049-0.014,0.116-0.031,0.168-0.036C314.825,117.716,312.789,118.902,311.093,119.858"/>
				<path style="fill:#A8A8A8;" d="M325.46,115.676c-2.075,1.225-5.593,3.112-6.197,2.961c-0.007-0.013-0.017-0.031-0.024-0.045
					c0.274-0.857,7.083-4.623,9.306-5.304c0.202-0.046,0.241-0.052,0.325-0.027C328.805,113.631,326.98,114.779,325.46,115.676"/>
				<path style="fill:#A8A8A8;" d="M342.792,111.438c-3.195,2.043-6.596,3.487-6.386,2.71c0.238-0.88,5.764-4.255,8.489-4.974
					c0.258-0.049,0.737-0.14,0.485,0.247C345.126,109.809,344.159,110.563,342.792,111.438"/>
				<path style="fill:#A8A8A8;" d="M362.877,107.213c-2.699,1.964-6.263,3.349-6.251,2.43c0.012-0.948,4.384-3.83,7.191-4.479
					c0.335-0.054,1.226-0.199,0.662,0.6C364.355,105.939,363.952,106.431,362.877,107.213"/>
				<path style="fill:#A8A8A8;" d="M385.438,103.075c-2.024,1.81-5.699,3.019-5.7,1.874c-0.001-0.959,2.98-3.092,5.458-3.596
					c1.834-0.257,1.002,0.894,0.816,1.127C385.882,102.645,385.646,102.89,385.438,103.075"/>
				<path style="fill:#A8A8A8;" d="M409.876,99.152c-1.266,1.619-4.631,2.507-4.739,1.25c-0.072-0.842,1.692-2.265,3.663-2.622
					C410.526,97.575,410.376,98.513,409.876,99.152"/>
				<path style="fill:#A8A8A8;" d="M434.671,95.678c-0.465,1.224-3.191,1.827-3.6,0.796c-0.251-0.632,0.642-1.588,2.127-1.827
					C434.61,94.507,434.851,95.205,434.671,95.678"/>
				<path style="fill:#A8A8A8;" d="M459.202,92.695c0.051,0.676-1.396,1.024-2.037,0.489c-0.403-0.336-0.219-0.965,0.768-1.106
					C458.771,92.012,459.179,92.399,459.202,92.695"/>
				<path style="fill:#A8A8A8;" d="M483.313,90.205c0.112,0.195-0.199,0.323-0.546,0.224c-0.306-0.088-0.427-0.299-0.232-0.404
					c0.061-0.033,0.131-0.041,0.173-0.047C483.024,89.958,483.252,90.099,483.313,90.205"/>
				<path style="fill:#A8A8A8;" d="M247.642,156.536c-3.312,2.462-4.79,3.559-5.111,3.757c0.269-0.35,7.768-5.887,9.544-7.083
					c0.017-0.01,0.039-0.024,0.055-0.034C252.046,153.262,252.046,153.262,247.642,156.536"/>
				<path style="fill:#A8A8A8;" d="M257.789,151.558c-0.244,0.183-5.984,4.482-6.756,4.534c0.118-0.826,9.012-7.312,11.272-8.394
					c0.057-0.021,0.136-0.047,0.197-0.051C262.382,148.048,259.873,149.995,257.789,151.558"/>
				<path style="fill:#A8A8A8;" d="M272.434,146.306c-2.932,2.271-7.419,5.34-8.215,5.052c-0.419-0.959,8.818-7.942,12.202-9.224
					c0.274-0.074,0.327-0.083,0.447-0.036C277.047,142.677,273.519,145.465,272.434,146.306"/>
				<path style="fill:#A8A8A8;" d="M291.223,140.89c-4.497,3.701-9.541,6.363-9.304,4.912c0.271-1.666,8.194-7.876,12.19-9.139
					c0.405-0.089,1.247-0.273,0.634,0.723C294.269,138.156,292.953,139.466,291.223,140.89"/>
				<path style="fill:#A8A8A8;" d="M313.88,135.399c-4.321,3.917-10.069,6.619-10.082,4.739c-0.013-1.926,6.974-7.641,11.502-8.868
					c1.466-0.271,1.774,0.256,0.916,1.566C315.888,133.335,315.217,134.186,313.88,135.399"/>
				<path style="fill:#A8A8A8;" d="M339.966,129.943c-3.753,3.941-10.334,6.496-10.206,3.962c0.107-2.105,5.565-6.708,9.962-7.749
					c3.233-0.511,1.659,1.99,1.31,2.497C340.786,129.012,340.348,129.542,339.966,129.943"/>
				<path style="fill:#A8A8A8;" d="M369.29,124.598c-2.806,3.7-9.624,5.955-9.993,3.306c-0.278-1.994,3.896-5.777,8.161-6.664
					C371.016,120.754,370.47,123.042,369.29,124.598"/>
				<path style="fill:#A8A8A8;" d="M400.861,119.551c-1.664,3.223-8.017,5.003-8.829,2.473c-0.557-1.735,2.243-4.624,5.979-5.313
					C401.355,116.323,401.534,118.247,400.861,119.551"/>
				<path style="fill:#A8A8A8;" d="M432.849,115.085c-0.637,2.644-5.706,3.987-7.136,1.89c-0.961-1.409,0.724-3.708,3.829-4.219
					C432.273,112.494,433.12,113.96,432.849,115.085"/>
				<path style="fill:#A8A8A8;" d="M464.58,111.245c0.113,1.894-3.526,2.813-5.123,1.294c-0.99-0.941-0.502-2.677,1.968-3.038
					C463.52,109.34,464.532,110.424,464.58,111.245"/>
				<path style="fill:#A8A8A8;" d="M495.569,108.048c0.36,0.952-1.158,1.525-2.499,0.943c-1.114-0.483-1.32-1.458-0.395-1.863
					c0.223-0.098,0.406-0.121,0.6-0.146C494.551,106.909,495.384,107.562,495.569,108.048"/>
				<path style="fill:#A8A8A8;" d="M525.454,105.51c0.162,0.23-0.069,0.397-0.459,0.332c-0.49-0.082-0.833-0.449-0.575-0.613
					c0.068-0.043,0.155-0.053,0.207-0.059C525.022,105.156,525.349,105.36,525.454,105.51"/>
				<path style="fill:#A8A8A8;" d="M207.654,190.87c-0.932,0.905-5.626,5.447-6.514,5.948c-0.01-0.016-0.023-0.038-0.033-0.055
					c0.843-1.331,9.453-9.627,11.517-11.095c0.03-0.017,0.07-0.04,0.1-0.057C212.681,185.744,212.565,186.099,207.654,190.87"/>
				<path style="fill:#A8A8A8;" d="M220.195,184.828c-3.202,3.156-8.028,7.399-8.731,6.948c-0.218-1.409,9.855-11.134,13.306-12.847
					c0.276-0.096,0.328-0.106,0.433-0.031C225.268,179.78,221.043,183.993,220.195,184.828"/>
				<path style="fill:#A8A8A8;" d="M238.183,178.46c-5.087,5.218-10.689,9.03-10.898,7.415c-0.265-2.045,9.558-11.867,14.411-13.754
					c0.446-0.117,1.632-0.429,0.473,1.523C241.469,174.825,240.016,176.58,238.183,178.46"/>
				<path style="fill:#A8A8A8;" d="M261.178,171.899c-5.398,5.933-12.79,10.127-12.758,7.238c0.034-3.032,8.934-11.882,14.637-13.72
					c2.55-0.546,1.835,1.362,0.786,3.059C262.988,169.862,261.694,171.331,261.178,171.899"/>
				<path style="fill:#A8A8A8;" d="M288.77,165.264c-5.151,6.299-13.779,10.502-14.204,6.919
					c-0.391-3.299,7.682-11.528,14.076-13.292c4.079-0.738,2.688,2.738,1.224,4.908C289.559,164.254,289.117,164.839,288.77,165.264
					"/>
				<path style="fill:#A8A8A8;" d="M320.487,158.673c-4.344,6.221-13.966,10.207-14.921,6.181
					c-0.789-3.324,5.994-10.544,12.676-12.149C323.482,151.892,322.4,155.934,320.487,158.673"/>
				<path style="fill:#A8A8A8;" d="M356.101,152.222c-3.288,5.989-13.646,9.586-15.184,5.272c-1.153-3.236,4.313-9.332,10.947-10.73
					C357.552,146.002,357.481,149.707,356.101,152.222"/>
				<path style="fill:#A8A8A8;" d="M394.22,146.155c-1.972,5.37-11.973,8.275-13.898,4.037c-1.318-2.901,2.585-7.692,8.536-8.805
					C394.265,140.772,395.017,143.985,394.22,146.155"/>
				<path style="fill:#A8A8A8;" d="M432.657,140.8c-0.746,4.489-8.89,6.72-11.466,3.141c-1.732-2.407,0.767-6.303,5.796-7.143
					C431.426,136.382,432.975,138.888,432.657,140.8"/>
				<path style="fill:#A8A8A8;" d="M470.885,136.188c0.16,3.277-5.568,4.994-8.513,2.551c-2.234-1.853-0.987-5.142,3.141-5.754
					C469.097,132.718,470.812,134.697,470.885,136.188"/>
				<path style="fill:#A8A8A8;" d="M508.206,132.349c0.585,2.133-2.801,3.28-5.328,1.805c-2.075-1.211-1.861-3.403,0.388-3.974
					c0.187-0.048,0.443-0.083,0.635-0.108C506.402,129.934,507.924,131.32,508.206,132.349"/>
				<path style="fill:#A8A8A8;" d="M544.193,129.301c0.484,0.965-0.678,1.585-2.107,1.124c-1.493-0.481-2.124-1.759-1.107-2.24
					c0.218-0.103,0.407-0.125,0.607-0.147C542.924,127.99,543.916,128.748,544.193,129.301"/>
				<path style="fill:#A8A8A8;" d="M578.5,127.075c0.135,0.185-0.004,0.319-0.284,0.276c-0.394-0.06-0.729-0.396-0.535-0.536
					c0.048-0.034,0.112-0.04,0.15-0.044C578.154,126.767,578.413,126.955,578.5,127.075"/>
				<path style="fill:#A8A8A8;" d="M172.769,230.191c-2.653,3.347-6.87,8.337-7.61,8.368c-0.393-0.959,9.62-13.515,12.458-15.622
					c0.068-0.037,0.166-0.083,0.243-0.086C177.815,223.737,174.285,228.279,172.769,230.191"/>
				<path style="fill:#A8A8A8;" d="M187.596,223.177c-4.852,6.231-10.093,10.983-10.583,9.595c-0.7-1.987,9.618-15.319,14.53-17.82
					c0.414-0.14,1.513-0.512,0.228,2.022C190.668,219.151,188.484,222.037,187.596,223.177"/>
				<path style="fill:#A8A8A8;" d="M208.702,215.798c-5.623,7.55-13.131,13.072-13.616,10.016
					c-0.559-3.524,9.611-16.341,15.909-18.836c3.254-0.839,1.24,3.233,0.224,5.022C210.762,212.806,209.953,214.119,208.702,215.798
					"/>
				<path style="fill:#A8A8A8;" d="M235.602,208.2c-5.788,8.374-15.31,14.263-16.433,10.163c-1.169-4.267,8.668-16.69,16.511-19.257
					c5.215-1.1,2.683,4.784,0.615,8.048C236.094,207.472,235.816,207.89,235.602,208.2"/>
				<path style="fill:#A8A8A8;" d="M267.826,200.52c-5.777,9.362-18.054,15.299-19.037,9.207
					c-0.814-5.043,8.069-15.914,16.533-18.278C271.955,190.265,270.378,196.385,267.826,200.52"/>
				<path style="fill:#A8A8A8;" d="M304.708,192.912c-4.915,9.395-18.956,14.991-20.58,8.202
					c-1.22-5.101,6.587-14.663,15.495-16.824C306.819,183.186,306.929,188.667,304.708,192.912"/>
				<path style="fill:#A8A8A8;" d="M345.829,185.489c-3.507,8.579-17.71,13.69-20.819,7.492c-2.337-4.66,4.252-13.389,13.503-15.358
					C346.193,176.605,347.414,181.61,345.829,185.489"/>
				<path style="fill:#A8A8A8;" d="M389.803,178.517c-2.106,7.796-16.121,11.978-19.476,5.81
					c-2.311-4.248,2.641-11.226,11.067-12.816C389.133,170.642,390.659,175.347,389.803,178.517"/>
				<path style="fill:#A8A8A8;" d="M433.975,172.375c-0.788,6.627-12.346,9.873-16.273,4.571c-2.649-3.577,0.683-9.329,7.853-10.537
					C431.922,165.82,434.312,169.543,433.975,172.375"/>
				<path style="fill:#A8A8A8;" d="M477.863,167.083c0.198,4.917-8.086,7.46-12.312,3.779c-3.218-2.803-1.387-7.745,4.59-8.641
					C475.316,161.841,477.772,164.836,477.863,167.083"/>
				<path style="fill:#A8A8A8;" d="M520.842,162.669c0.701,3.42-4.553,5.231-8.267,2.851c-3.043-1.95-2.524-5.451,0.942-6.349
					c0.288-0.074,0.681-0.129,0.976-0.168C518.312,158.798,520.505,161.023,520.842,162.669"/>
				<path style="fill:#A8A8A8;" d="M562.261,159.167c0.703,1.888-1.74,3.02-4.215,1.954c-2.459-1.059-3.01-3.427-0.966-4.153
					c0.306-0.109,0.608-0.143,0.851-0.171C560.279,156.719,561.877,158.136,562.261,159.167"/>
				<path style="fill:#A8A8A8;" d="M601.633,156.605c0.38,0.71-0.296,1.161-1.293,0.861c-1.151-0.347-1.79-1.413-1.068-1.782
					c0.148-0.075,0.28-0.088,0.421-0.101C600.648,155.573,601.402,156.175,601.633,156.605"/>
				<polyline style="fill:#A8A8A8;" points="638.818,155.138 638.644,155.051 638.672,154.959 638.847,155.046 638.818,155.138 				
					"/>
				<path style="fill:#A8A8A8;" d="M134.1,281.248c-2.435,4.074-4.853,8.157-5.186,8.732l1.509-2.635l8.412-13.953
					C138.166,274.473,136.13,277.851,134.1,281.248"/>
				<path style="fill:#A8A8A8;" d="M143.394,273.957c-2.513,4.174-6.964,10.817-8.208,10.876
					c-1.111-1.167,8.883-17.639,12.292-20.259c0.102-0.053,0.25-0.112,0.365-0.118C148.454,265.109,145.334,270.736,143.394,273.957
					"/>
				<path style="fill:#A8A8A8;" d="M160.282,266.091c-4.995,8.453-11.282,14.759-12.013,12.048
					c-0.936-3.473,8.881-19.652,14.593-22.625c3.252-1.076-0.006,5.744-0.693,7.122C161.685,263.609,160.909,265.03,160.282,266.091
					"/>
				<path style="fill:#A8A8A8;" d="M184.268,257.81c-5.856,10.385-15.249,17.608-16.21,12.465
					c-1.008-5.392,8.874-20.846,16.542-23.932C189.814,245.021,187.164,252.675,184.268,257.81"/>
				<path style="fill:#A8A8A8;" d="M214.779,249.287c-5.974,11.458-18.538,19.289-20.369,12.695
					c-1.728-6.225,8.311-21.526,17.86-24.689C219.05,235.882,217.819,243.457,214.779,249.287"/>
				<path style="fill:#A8A8A8;" d="M251.079,240.702c-5.734,12.363-21.129,20.179-23.874,12.122
					c-2.274-6.677,7.286-21.024,18.245-24.115C253.859,227.223,253.804,234.827,251.079,240.702"/>
				<path style="fill:#A8A8A8;" d="M292.557,232.201c-4.89,12.486-22.852,19.9-26.327,10.866c-2.622-6.815,6.1-19.543,17.719-22.386
					C293.571,219.22,294.775,226.538,292.557,232.201"/>
				<path style="fill:#A8A8A8;" d="M338.493,223.933c-3.464,11.344-21.638,18.076-26.638,9.868
					c-3.785-6.213,3.707-17.799,15.721-20.376C337.726,212.094,340.07,218.768,338.493,223.933"/>
				<path style="fill:#A8A8A8;" d="M387.413,216.191c-2.124,10.629-19.895,16.049-25.02,7.631
					c-3.45-5.668,2.384-14.937,13.31-17.014C385.286,205.744,388.32,211.655,387.413,216.191"/>
				<path style="fill:#A8A8A8;" d="M436.649,209.363c-0.766,8.888-15.875,13.219-21.272,6.097
					c-3.677-4.853,0.456-12.621,9.885-14.221C433.665,200.471,436.98,205.528,436.649,209.363"/>
				<path style="fill:#A8A8A8;" d="M485.563,203.478c0.224,6.792-10.898,10.275-16.529,5.176c-4.31-3.903-1.833-10.746,6.195-11.959
					C482.186,196.194,485.46,200.36,485.563,203.478"/>
				<path style="fill:#A8A8A8;" d="M533.29,198.574c0.751,4.817-6.486,7.354-11.386,3.992c-4.353-2.986-3.046-8.19,2.293-9.128
					c0.204-0.036,0.479-0.064,0.684-0.091C530.077,193.075,532.926,196.24,533.29,198.574"/>
				<path style="fill:#A8A8A8;" d="M579.424,194.677c0.847,3.029-3.26,4.695-6.761,2.742c-3.314-1.848-3.383-5.399-0.121-6.229
					c0.255-0.065,0.604-0.107,0.865-0.137C576.828,190.944,578.985,193.107,579.424,194.677"/>
				<path style="fill:#A8A8A8;" d="M623.276,191.825c0.572,1.426-0.948,2.282-2.758,1.553c-1.997-0.805-2.693-2.84-1.163-3.403
					c0.218-0.08,0.437-0.101,0.613-0.118C621.699,189.842,622.944,190.999,623.276,191.825"/>
				<path style="fill:#A8A8A8;" d="M664.246,190.071c0.109,0.209-0.047,0.344-0.31,0.269c-0.348-0.1-0.576-0.461-0.365-0.577
					c0.041-0.022,0.078-0.025,0.118-0.028C663.955,189.74,664.175,189.935,664.246,190.071"/>
				<path style="fill:#A8A8A8;" d="M109.5,329.61c-1.685,3.876-4.363,9.905-4.837,10.625c0.01-0.15,0.017-0.25,0.986-2.609
					l6.601-15.131c0.78-1.687,0.955-2.028,1.151-2.39c0.019-0.029,0.044-0.067,0.063-0.096
					C113.432,320.537,110.156,328.099,109.5,329.61"/>
				<path style="fill:#A8A8A8;" d="M119.871,321.644c-3.627,8.248-7.868,14.674-8.402,12.732
					c-0.748-2.715,7.183-20.931,11.069-24.009c1.564-0.774,0.43,3.116-0.386,5.504C121.343,318.239,120.287,320.697,119.871,321.644
					"/>
				<path style="fill:#A8A8A8;" d="M138.595,313.043c-4.358,10.08-11.198,17.863-12.84,14.61
					c-2.131-4.223,6.648-23.842,13.42-27.432C143.157,298.93,141.233,306.942,138.595,313.043"/>
				<path style="fill:#A8A8A8;" d="M165.193,303.979c-5.309,12.863-15.974,21.785-18.406,15.397
					c-2.544-6.684,6.806-25.781,16.092-29.569C169.158,288.237,168.013,297.149,165.193,303.979"/>
				<path style="fill:#A8A8A8;" d="M198.891,294.666c-5.457,14.309-20.206,24.076-23.911,15.833
					c-3.507-7.803,6.382-26.932,18.109-30.858C201.721,277.865,201.678,287.358,198.891,294.666"/>
				<path style="fill:#A8A8A8;" d="M238.935,285.29c-5.309,15.672-23.958,25.565-28.918,15.341
					c-4.13-8.513,5.727-26.743,19.39-30.633C240.191,268.114,241.471,277.806,238.935,285.29"/>
				<path style="fill:#A8A8A8;" d="M284.131,276.064c-4.476,15.646-26.268,24.928-31.942,13.606
					c-4.318-8.618,4.919-24.656,19.271-28.197C283.601,259.648,286.179,268.907,284.131,276.064"/>
				<path style="fill:#A8A8A8;" d="M334.078,267.096c-3.166,14.177-25.215,22.571-32.318,12.304
					c-4.941-7.142,1.679-22.186,17.452-25.592C331.88,252.163,335.532,260.588,334.078,267.096"/>
				<path style="fill:#A8A8A8;" d="M387.107,258.716c-1.92,13.207-23.57,19.946-30.481,9.489
					c-4.723-7.146,1.837-18.789,15.276-21.363C383.769,245.538,387.938,253,387.107,258.716"/>
				<path style="fill:#A8A8A8;" d="M440.406,251.324c-0.646,10.55-17.608,16.207-25.207,8.407
					c-5.808-5.962-1.135-16.644,10.933-18.709C436.47,240.091,440.702,246.486,440.406,251.324"/>
				<path style="fill:#A8A8A8;" d="M493.197,244.951c0.218,8.383-13.173,12.66-19.901,6.356c-5.193-4.866-2.2-13.361,7.484-14.836
					C489.176,235.876,493.096,241.072,493.197,244.951"/>
				<path style="fill:#A8A8A8;" d="M545.154,239.626c0.717,6.169-8.338,9.396-14.248,5.078c-5.275-3.853-3.449-10.53,3.203-11.712
					c0.254-0.045,0.597-0.08,0.853-0.115C541.412,232.546,544.805,236.624,545.154,239.626"/>
				<path style="fill:#A8A8A8;" d="M595.382,235.395c0.906,4.367-5.178,6.518-9.573,3.386c-3.956-2.819-3.156-7.536,1.403-8.273
					c0.176-0.028,0.412-0.048,0.589-0.069C592.292,230.303,594.938,233.255,595.382,235.395"/>
				<path style="fill:#A8A8A8;" d="M642.819,232.295c0.643,2.165-1.858,3.377-4.316,2.092c-2.458-1.285-2.958-4.007-0.876-4.775
					c0.313-0.116,0.619-0.146,0.864-0.17C640.887,229.426,642.464,231.101,642.819,232.295"/>
				<path style="fill:#A8A8A8;" d="M687.29,230.385c0.24,0.622-0.338,0.974-1.049,0.638c-0.79-0.373-1.092-1.265-0.505-1.492
					c0.084-0.032,0.169-0.039,0.237-0.044C686.647,229.501,687.149,230.021,687.29,230.385"/>
				<path style="fill:#A8A8A8;" d="M91.339,381.217c-1.21,4.207-3.357,11.192-3.971,12.028c-0.434-0.952,5.346-20.47,6.511-22.786
					c0.024-0.033,0.057-0.077,0.081-0.111C94.272,370.969,91.641,380.17,91.339,381.217"/>
				<path style="fill:#A8A8A8;" d="M102.582,372.712c-2.759,9.374-6.731,16.658-7.87,14.433c-1.583-3.092,4.368-23.758,8.632-27.233
					C105.758,358.754,104.352,366.7,102.582,372.712"/>
				<path style="fill:#A8A8A8;" d="M122.824,363.516c-3.623,12.415-10.931,21.331-13.254,16.17
					c-2.683-5.961,4.149-27.028,11.349-30.913C125.639,347.271,124.874,356.49,122.824,363.516"/>
				<path style="fill:#A8A8A8;" d="M151.519,353.832c-4.174,14.902-15.533,25.231-19.603,17.826
					c-4.28-7.785,3.625-29.962,14.197-34.33C153.543,335.495,153.747,345.875,151.519,353.832"/>
				<path style="fill:#A8A8A8;" d="M188.151,343.845c-4.442,17.12-21.053,28.797-26.929,18.931
					c-5.598-9.4,3.446-32.357,17.245-37.024C188.938,323.621,190.434,335.049,188.151,343.845"/>
				<path style="fill:#A8A8A8;" d="M231.342,333.832c-4.384,18.963-25.99,30.931-33.505,18.558
					c-6.314-10.395,3.22-32.567,19.504-37.243C230.505,312.869,233.453,324.702,231.342,333.832"/>
				<path style="fill:#A8A8A8;" d="M279.346,324.048c-3.656,18.613-28.812,29.669-36.872,16.205
					c-5.661-9.456,1.872-29.345,19.886-33.823C276.889,304.265,281.039,315.429,279.346,324.048"/>
				<path style="fill:#A8A8A8;" d="M332.284,314.54c-2.582,16.678-27.834,26.554-37.014,14.476
					c-7.201-9.474,0.679-26.55,18.3-30.384C328.473,296.716,333.485,306.781,332.284,314.54"/>
				<path style="fill:#A8A8A8;" d="M388.314,305.667c-1.464,14.581-24.152,22.756-33.718,12.149
					c-7.367-8.168-0.603-23.098,15.482-26.2C383.779,290.128,388.99,298.936,388.314,305.667"/>
				<path style="fill:#A8A8A8;" d="M444.758,297.826c-0.508,12.2-19.674,18.735-28.484,9.711
					c-6.828-6.994-1.809-19.469,11.935-21.838C440.016,284.65,444.994,292.159,444.758,297.826"/>
				<path style="fill:#A8A8A8;" d="M500.983,291.049c0.194,9.895-15.236,14.924-22.931,7.474
					c-6.006-5.815-2.554-15.918,8.636-17.637C496.397,280.211,500.893,286.422,500.983,291.049"/>
				<path style="fill:#A8A8A8;" d="M556.156,285.387c0.612,7.36-9.946,11.192-16.614,6.03c-5.716-4.425-3.972-12.942,5.045-14.166
					C552.069,276.878,555.856,281.785,556.156,285.387"/>
				<path style="fill:#A8A8A8;" d="M609.342,280.884c0.762,5.159-6.291,7.69-11.098,3.982c-4.352-3.357-3.168-8.953,2.077-9.815
					c0.202-0.033,0.474-0.056,0.677-0.08C606.129,274.823,608.966,278.34,609.342,280.884"/>
				<path style="fill:#A8A8A8;" d="M660.024,277.589c0.628,2.958-2.971,4.472-5.924,2.492c-2.994-2.007-2.745-5.697,0.415-6.169
					c0.116-0.017,0.272-0.027,0.389-0.039C657.888,273.857,659.695,276.036,660.024,277.589"/>
				<path style="fill:#A8A8A8;" d="M707.263,275.55c0.29,1.056-0.754,1.59-1.831,0.936c-1.121-0.681-1.298-2.07-0.296-2.322
					c0.075-0.019,0.178-0.028,0.255-0.034C706.42,274.153,707.105,274.974,707.263,275.55"/>
				<path style="fill:#A8A8A8;" d="M80.043,435.503c-0.673,4.504-2.009,11.983-2.73,12.876c-0.967-1.018,2.415-21.937,3.575-24.422
					c0.029-0.036,0.068-0.083,0.097-0.119C81.663,424.508,80.211,434.38,80.043,435.503"/>
				<path style="fill:#A8A8A8;" d="M91.916,426.607c-1.609,10.139-5.04,18.003-6.799,15.583c-2.445-3.364,0.911-25.709,5.363-29.44
					C93.187,411.491,92.949,420.095,91.916,426.607"/>
				<path style="fill:#A8A8A8;" d="M113.165,416.999c-2.161,13.373-9.069,22.972-12.527,17.408
					c-4.017-6.462,0.375-29.212,7.955-33.374C113.788,399.411,114.394,409.393,113.165,416.999"/>
				<path style="fill:#A8A8A8;" d="M143.41,406.859c-2.576,16.262-13.924,27.537-19.584,19.458
					c-6.003-8.568-0.343-32.872,10.981-37.613C143.041,386.703,144.795,398.115,143.41,406.859"/>
				<path style="fill:#A8A8A8;" d="M182.021,396.403c-2.886,19.336-19.849,32.031-27.923,20.899
					c-7.602-10.481-0.466-35.965,14.516-41.087C180.291,373.868,183.484,386.607,182.021,396.403"/>
				<path style="fill:#A8A8A8;" d="M227.94,385.88c-2.91,21.572-26.439,35.21-36.488,21.149
					c-8.766-12.266-0.619-37.318,18.036-42.723C224.571,361.725,229.358,375.368,227.94,385.88"/>
				<path style="fill:#A8A8A8;" d="M277.665,375.719c-2.329,19.93-27.235,32.545-38.623,19.562
					c-9.957-11.351-2.123-34.535,17.839-39.538C273.107,353.351,278.803,365.984,277.665,375.719"/>
				<path style="fill:#A8A8A8;" d="M332.416,365.839c-1.77,18.697-28.171,29.327-39.236,15.797
					c-8.585-10.498-1.277-29.326,17.678-33.482C327.077,346.091,333.228,357.254,332.416,365.839"/>
				<path style="fill:#A8A8A8;" d="M390.75,356.589c-1.004,16.344-24.738,25.126-35.768,13.236
					c-8.397-9.051-1.845-25.505,15.41-28.859C385.193,339.379,391.207,349.146,390.75,356.589"/>
				<path style="fill:#A8A8A8;" d="M449.526,348.407c-0.338,13.666-20.375,20.67-30.196,10.555
					c-7.504-7.729-2.454-21.44,12.215-23.989C444.204,333.864,449.68,342.161,449.526,348.407"/>
				<path style="fill:#A8A8A8;" d="M508.25,341.326c0.157,11.179-16.128,16.609-24.541,8.184c-6.459-6.468-2.771-17.652,9.24-19.514
					C503.383,329.284,508.178,336.193,508.25,341.326"/>
				<path style="fill:#A8A8A8;" d="M565.714,335.411c0.441,8.072-10.829,12.255-17.733,6.582c-6.098-5.01-4.113-14.241,5.68-15.583
					C561.614,326.024,565.497,331.441,565.714,335.411"/>
				<path style="fill:#A8A8A8;" d="M621.439,330.703c0.562,5.842-7.234,8.695-12.267,4.489c-4.467-3.733-3.379-10.401,3.479-11.22
					C618.251,323.82,621.162,327.817,621.439,330.703"/>
				<path style="fill:#A8A8A8;" d="M674.237,327.25c0.473,3.421-3.459,5.097-6.573,2.802c-3.083-2.272-2.55-6.43,0.891-6.951
					c0.126-0.019,0.297-0.03,0.424-0.043C672.204,323.046,673.995,325.502,674.237,327.25"/>
				<path style="fill:#A8A8A8;" d="M723.603,325.113c0.224,1.247-1.046,1.899-2.191,1.126c-1.213-0.82-1.277-2.48-0.107-2.777
					c0.087-0.022,0.207-0.033,0.297-0.04C722.779,323.452,723.481,324.429,723.603,325.113"/>
				<path style="fill:#A8A8A8;" d="M76.013,491.941c-0.068,4.532-0.464,12.05-1.24,12.929c-1.454-1.043-0.811-22.093,0.262-24.58
					c0.032-0.036,0.074-0.083,0.105-0.119C76.15,480.853,76.03,490.808,76.013,491.941"/>
				<path style="fill:#A8A8A8;" d="M88.175,482.823c-0.281,10.265-2.892,18.212-5.173,15.748
					c-3.186-3.441-2.807-26.105,1.535-29.849C87.347,467.454,88.356,476.205,88.175,482.823"/>
				<path style="fill:#A8A8A8;" d="M109.948,472.979c-0.463,12.694-5.99,22.453-10.376,18.319
					c-5.761-5.431-4.627-30.254,3.295-34.685C108.222,454.974,110.231,465.196,109.948,472.979"/>
				<path style="fill:#A8A8A8;" d="M140.757,462.615c-0.69,16.312-11.014,27.627-17.817,19.528
					c-7.309-8.701-4.514-33.253,6.629-37.983C137.909,442.165,141.132,453.751,140.757,462.615"/>
				<path style="fill:#A8A8A8;" d="M179.934,451.944c-0.861,19.06-16.509,31.6-25.759,20.644
					c-9.079-10.754-4.87-35.763,10.016-40.911C175.785,429.378,180.377,442.144,179.934,451.944"/>
				<path style="fill:#A8A8A8;" d="M226.323,441.219c-0.911,20.118-20.527,33.388-32.29,21.844
					c-11.515-11.3-6.441-37.659,12.24-43.127C220.879,417.469,226.791,430.896,226.323,441.219"/>
				<path style="fill:#A8A8A8;" d="M277.861,430.727c-0.881,20.381-24.385,32.797-36.984,19.538
					c-10.958-11.532-5.047-34.951,14.58-39.916C271.619,407.997,278.288,420.849,277.861,430.727"/>
				<path style="fill:#A8A8A8;" d="M334.197,420.564c-0.734,18.863-26.562,29.602-38.383,15.96
					c-8.439-9.739-4.634-29.779,15.613-34.256C327.702,400.224,334.54,411.736,334.197,420.564"/>
				<path style="fill:#A8A8A8;" d="M394.164,411.049c-0.421,16.66-23.877,25.599-35.349,13.472
					c-8.887-9.394-3.037-26.368,14.214-29.752C388.767,393.105,394.345,403.872,394.164,411.049"/>
				<path style="fill:#A8A8A8;" d="M454.594,402.635c-0.126,14.082-20.138,21.275-30.16,10.839
					c-7.866-8.191-3.408-22.29,11.754-24.95C448.98,387.424,454.652,396.113,454.594,402.635"/>
				<path style="fill:#A8A8A8;" d="M514.811,395.357c0.102,11.52-16.171,17.09-24.524,8.395c-6.491-6.757-2.821-18.379,9.215-20.265
					C509.984,382.791,514.764,390.009,514.811,395.357"/>
				<path style="fill:#A8A8A8;" d="M573.923,389.273c0.249,8.653-11.014,12.94-17.986,6.846c-6.055-5.292-3.873-14.994,6.034-16.369
					C570.015,379.374,573.803,385.092,573.923,389.273"/>
				<path style="fill:#A8A8A8;" d="M631.091,384.429c0.31,6.234-7.487,9.148-12.45,4.653c-4.231-3.831-2.829-10.916,3.937-11.735
					C628.2,377.205,630.941,381.403,631.091,384.429"/>
				<path style="fill:#A8A8A8;" d="M685.269,380.874c0.257,3.528-3.719,5.251-6.647,2.882c-2.911-2.356-2.137-6.655,1.293-7.187
					c0.125-0.019,0.294-0.03,0.42-0.043C683.52,376.52,685.137,379.065,685.269,380.874"/>
				<path style="fill:#A8A8A8;" d="M735.938,378.666c0.125,1.307-1.215,1.905-2.241,1c-0.98-0.865-0.852-2.542,0.503-2.653
					C735.292,377.042,735.874,377.997,735.938,378.666"/>
				<path style="fill:#A8A8A8;" d="M79.715,549.905c0.54,4.499,1.054,11.497,0.256,12.334c-1.456-0.095-4.063-20.852-2.967-23.628
					c0.033-0.034,0.077-0.08,0.109-0.114C78.026,538.565,79.169,545.356,79.715,549.905"/>
				<path style="fill:#A8A8A8;" d="M91.8,540.756c1.001,9.652-0.665,17.147-3.301,14.851c-3.746-3.263-6.269-24.835-2.247-28.416
					C88.986,526,91.142,534.406,91.8,540.756"/>
				<path style="fill:#A8A8A8;" d="M113.458,530.884c1.059,12.071-3.136,21.049-8.016,17.155
					c-6.425-5.127-8.336-28.624-0.963-32.835C109.59,513.678,112.806,523.454,113.458,530.884"/>
				<path style="fill:#A8A8A8;" d="M144.131,520.486c1.036,14.37-6.723,24.852-14.072,19.01c-8.805-6.999-9.669-31.96,1.19-36.643
					C139.124,501.006,143.523,512.052,144.131,520.486"/>
				<path style="fill:#A8A8A8;" d="M183.019,509.794c0.94,16.493-11.232,28.105-21.005,20.039
					c-10.78-8.896-10.088-34.227,4.134-39.211C176.912,488.524,182.493,500.57,183.019,509.794"/>
				<path style="fill:#A8A8A8;" d="M228.907,499.054c0.76,17.931-15.972,29.864-27.543,19.643
					c-11.411-10.079-9.007-34.506,7.42-39.372C221.994,477.13,228.504,489.541,228.907,499.054"/>
				<path style="fill:#A8A8A8;" d="M280.767,488.46c0.519,18.403-20.086,29.709-32.422,17.79
					c-10.828-10.462-7.051-32.492,10.422-36.961C273.509,467.177,280.507,479.228,280.767,488.46"/>
				<path style="fill:#A8A8A8;" d="M338.066,478.155c0.254,16.995-21.202,27.339-33.761,16.278
					c-11.014-9.701-6.772-30.014,11.335-34.063C330.897,458.485,337.939,469.635,338.066,478.155"/>
				<path style="fill:#A8A8A8;" d="M398.73,468.522c0.142,15.778-21.57,24.272-32.722,12.801
					c-8.877-9.131-4.081-25.558,12.172-28.781C392.242,451.084,398.663,461.008,398.73,468.522"/>
				<path style="fill:#A8A8A8;" d="M459.91,460.003c0.081,13.546-18.696,20.464-28.298,10.426
					c-6.935-7.25-4.38-21.768,10.584-24.423C454.35,444.984,459.871,453.576,459.91,460.003"/>
				<path style="fill:#A8A8A8;" d="M520.722,452.645c0.047,11.132-15.291,16.507-23.115,8.101
					c-5.645-6.065-3.542-17.942,8.663-19.88C516.201,440.226,520.7,447.368,520.722,452.645"/>
				<path style="fill:#A8A8A8;" d="M580.438,446.49c0.039,8.408-10.629,12.558-17.037,6.628c-5.51-5.099-3.222-14.773,5.973-16.068
					C576.974,436.711,580.419,442.366,580.438,446.49"/>
				<path style="fill:#A8A8A8;" d="M638.041,441.586c0.039,5.929-7.201,8.688-11.562,4.406c-3.75-3.682-2.211-10.469,4.032-11.239
					C635.673,434.635,638.022,438.678,638.041,441.586"/>
				<path style="fill:#A8A8A8;" d="M692.809,437.987c0.039,3.477-3.94,4.989-6.354,2.414c-2.066-2.203-1.24-6.142,2.181-6.5
					C691.483,433.904,692.791,436.292,692.809,437.987"/>
				<path style="fill:#A8A8A8;" d="M743.885,435.74c0.018,0.95-0.952,1.387-1.622,0.73c-0.649-0.636-0.468-1.869,0.498-1.952
					C743.521,434.542,743.875,435.247,743.885,435.74"/>
				<path style="fill:#A8A8A8;" d="M91.04,606.594c0.985,3.806,2.178,9.738,1.43,10.484c-1.527-0.012-6.197-17.571-5.317-19.988
					c0.031-0.031,0.073-0.072,0.104-0.102C88.213,597.004,90.043,602.742,91.04,606.594"/>
				<path style="fill:#A8A8A8;" d="M102.763,597.569c1.955,8.253,1.146,14.713-1.602,12.8c-3.924-2.732-8.602-21.217-5.134-24.37
					C98.528,584.922,101.472,592.116,102.763,597.569"/>
				<path style="fill:#A8A8A8;" d="M123.832,587.843c2.185,10.278-0.789,17.999-5.681,14.752
					c-6.493-4.309-10.677-24.406-4.26-28.106C118.499,573.117,122.478,581.472,123.832,587.843"/>
				<path style="fill:#A8A8A8;" d="M153.718,577.599c2.272,12.214-3.783,21.218-10.981,16.33
					c-8.704-5.912-11.902-27.26-2.452-31.362C147.316,560.922,152.373,570.367,153.718,577.599"/>
				<path style="fill:#A8A8A8;" d="M191.531,567.078c2.228,14.133-7.418,23.826-16.92,17.003
					c-10.374-7.449-11.96-28.867,0.273-33.174C184.319,549.073,190.299,559.259,191.531,567.078"/>
				<path style="fill:#A8A8A8;" d="M236.421,556.477c1.956,15.331-11.628,25.283-22.711,16.64
					c-10.833-8.449-10.571-29.084,3.55-33.281C228.768,537.926,235.393,548.417,236.421,556.477"/>
				<path style="fill:#A8A8A8;" d="M287.5,545.994c1.53,15.854-15.576,25.365-27.319,15.19c-10.219-8.855-8.299-27.617,6.826-31.495
					C279.878,527.847,286.739,538.115,287.5,545.994"/>
				<path style="fill:#A8A8A8;" d="M344.192,535.772c0.953,14.812-17.153,23.596-28.916,14.027
					c-10.206-8.302-7.456-25.773,8.341-29.31C337.024,518.834,343.719,528.43,344.192,535.772"/>
				<path style="fill:#A8A8A8;" d="M404.754,526.183c0.552,14.183-18.401,21.6-28.972,11.337
					c-8.29-8.048-4.514-22.566,10.006-25.445C398.439,510.761,404.495,519.534,404.754,526.183"/>
				<path style="fill:#A8A8A8;" d="M465.392,517.729c0.197,12.137-16.201,18.155-25.067,9.198
					c-6.927-6.999-3.398-19.315,9.085-21.529C460.281,504.483,465.3,512.058,465.392,517.729"/>
				<path style="fill:#A8A8A8;" d="M525.859,510.423c-0.045,9.803-13.78,14.582-20.7,7.201c-5.536-5.905-2.426-16.035,7.822-17.658
					C521.899,499.389,525.88,505.733,525.859,510.423"/>
				<path style="fill:#A8A8A8;" d="M584.916,504.319c-0.172,7.475-10.435,10.893-15.466,5.152
					c-3.655-4.171-2.069-12.161,6.072-13.303C582.139,495.871,584.999,500.756,584.916,504.319"/>
				<path style="fill:#A8A8A8;" d="M642.063,499.453c-0.194,4.969-6.373,7.285-9.868,3.7c-3.013-3.091-1.472-8.789,3.798-9.435
					C640.338,493.616,642.158,497.011,642.063,499.453"/>
				<path style="fill:#A8A8A8;" d="M696.441,495.88c-0.142,2.712-3.321,3.89-5.077,1.881c-1.503-1.72-0.668-4.796,2.017-5.077
					C695.607,492.687,696.511,494.555,696.441,495.88"/>
				<path style="fill:#A8A8A8;" d="M747.156,493.653c-0.025,0.403-0.451,0.587-0.712,0.308c-0.252-0.269-0.133-0.789,0.278-0.823
					C747.06,493.148,747.168,493.459,747.156,493.653"/>
				<path style="fill:#A8A8A8;" d="M109.406,660.128c1.88,4.63,2.836,8.535,2.046,8.358c-1.254-0.282-7.271-13.442-6.465-15.866
					C105.671,651.978,107.983,656.624,109.406,660.128"/>
				<path style="fill:#A8A8A8;" d="M120.471,651.403c2.337,6.181,2.408,11.275,0.147,10.481c-3.472-1.22-10.173-16.923-7.189-19.69
					C115.544,641.291,118.82,647.036,120.471,651.403"/>
				<path style="fill:#A8A8A8;" d="M140.588,641.987c2.691,7.818,1.201,14.056-2.954,12.361c-5.967-2.435-12.499-19.96-7.013-23.155
					C134.533,630.032,138.805,636.806,140.588,641.987"/>
				<path style="fill:#A8A8A8;" d="M169.137,632.084c3.084,10.085-1.241,17.315-7.979,13.338
					c-8.048-4.75-12.729-22.088-4.939-25.485C162.143,618.55,167.339,626.205,169.137,632.084"/>
				<path style="fill:#A8A8A8;" d="M205.303,621.905c2.991,11.361-4.374,19.235-12.92,13.81
					c-9.414-5.976-12.514-23.288-2.485-26.828C197.757,607.357,203.637,615.578,205.303,621.905"/>
				<path style="fill:#A8A8A8;" d="M248.405,611.634c2.669,12.292-7.969,20.356-17.785,13.483
					c-9.685-6.781-10.945-23.43,0.588-26.861C240.722,596.673,246.992,605.126,248.405,611.634"/>
				<path style="fill:#A8A8A8;" d="M297.795,601.442c2.043,12.139-10.376,20.061-20.763,13.244
					c-10.234-6.716-10.382-23.136,2.669-26.483C290.387,586.67,296.715,595.022,297.795,601.442"/>
				<path style="fill:#A8A8A8;" d="M352.838,591.491c1.419,12.12-13.363,19.374-23.606,11.586
					c-8.972-6.822-7.467-21.213,5.661-24.149C346.094,577.541,352.13,585.439,352.838,591.491"/>
				<path style="fill:#A8A8A8;" d="M411.712,582.134c0.825,11.58-14.721,17.689-23.763,9.338
					c-7.154-6.607-4.451-18.545,7.562-20.925C406.038,569.451,411.322,576.662,411.712,582.134"/>
				<path style="fill:#A8A8A8;" d="M471.058,573.869c0.289,10.087-13.41,15.12-20.941,7.695c-5.928-5.845-3.132-16.139,7.341-17.995
					C466.613,562.796,470.922,569.127,471.058,573.869"/>
				<path style="fill:#A8A8A8;" d="M529.748,566.745c-0.09,8.118-11.079,11.933-16.798,5.832
					c-4.482-4.782-1.929-12.988,6.399-14.306C526.591,557.8,529.79,562.943,529.748,566.745"/>
				<path style="fill:#A8A8A8;" d="M587.461,560.783c-0.298,6.135-8.427,8.829-12.426,4.119c-2.832-3.336-1.419-9.727,5.087-10.639
					C585.414,554.024,587.6,557.932,587.461,560.783"/>
				<path style="fill:#A8A8A8;" d="M643.313,556.038c-0.32,3.857-5.179,5.66-7.761,2.88c-2.234-2.406-0.853-6.843,3.253-7.346
					C642.176,551.494,643.47,554.137,643.313,556.038"/>
				<path style="fill:#A8A8A8;" d="M696.176,552.543c-0.188,1.656-2.177,2.379-3.176,1.155c-0.86-1.054-0.236-2.94,1.421-3.112
					C695.862,550.587,696.262,551.787,696.176,552.543"/>
				<polyline style="fill:#A8A8A8;" points="746.041,550.557 745.913,550.405 746.057,550.247 746.186,550.398 746.041,550.557 				
					"/>
				<path style="fill:#A8A8A8;" d="M133.123,717.476c0.314,0.529,1.908,3.21,2.421,4.049l-4.658-7.832
					C131.312,714.428,132.471,716.379,133.123,717.476"/>
				<path style="fill:#A8A8A8;" d="M134.276,710.032c1.983,3.489,3.057,6.337,2.345,6.219c-1.117-0.185-7.241-9.91-6.692-11.741
					C130.482,704.016,132.804,707.442,134.276,710.032"/>
				<path style="fill:#A8A8A8;" d="M144.487,701.757c2.514,4.719,3.012,8.485,1.045,7.902c-3.118-0.925-10.011-12.564-7.671-14.788
					C139.528,694.17,142.739,698.476,144.487,701.757"/>
				<path style="fill:#A8A8A8;" d="M163.313,692.814c2.932,6.004,2.281,10.823-1.289,9.548c-5.343-1.907-12.329-15.216-7.917-17.814
					C157.224,683.629,161.367,688.829,163.313,692.814"/>
				<path style="fill:#A8A8A8;" d="M189.969,683.427c3.123,7.158,0.768,12.658-4.5,10.509c-7.066-2.883-13.17-16.936-6.899-19.69
					C183.198,673.166,188.022,678.964,189.969,683.427"/>
				<path style="fill:#A8A8A8;" d="M224.094,673.737c3.159,8.36-1.39,14.417-8.392,11.175c-8.718-4.038-12.598-17.916-5.847-20.915
					c0.227-0.101,0.547-0.194,0.781-0.277C216.852,662.511,222.248,668.85,224.094,673.737"/>
				<path style="fill:#A8A8A8;" d="M264.834,663.959c2.857,9.085-4.175,15.416-12.334,11.105c-9.34-4.935-11.464-18.217-3.392-21.21
					c0.282-0.105,0.673-0.201,0.962-0.287C257.606,652.314,263.241,658.889,264.834,663.959"/>
				<path style="fill:#A8A8A8;" d="M311.587,654.244c2.318,9.414-7.08,15.592-15.713,10.328c-8.552-5.214-9.646-17.991,0.552-20.611
					C304.839,642.754,310.356,649.247,311.587,654.244"/>
				<path style="fill:#A8A8A8;" d="M363.917,644.739c1.643,9.414-9.715,15.082-18.139,9.052c-7.427-5.317-6.893-16.55,3.382-18.852
					C357.968,633.848,363.092,640.013,363.917,644.739"/>
				<path style="fill:#A8A8A8;" d="M420.237,635.769c0.916,8.564-10.201,13.576-17.755,8.003
					c-6.688-4.934-5.379-15.161,4.563-17.134C415.377,625.772,419.775,631.456,420.237,635.769"/>
				<path style="fill:#A8A8A8;" d="M476.747,627.855c0.34,7.679-10.055,11.52-15.889,5.871c-4.614-4.467-2.616-12.333,5.371-13.75
					C473.217,619.387,476.587,624.229,476.747,627.855"/>
				<path style="fill:#A8A8A8;" d="M533.181,621.014c-0.101,6.244-8.518,9.175-12.867,4.481c-3.105-3.352-1.869-9.921,4.929-10.997
					C530.797,614.137,533.228,618.091,533.181,621.014"/>
				<path style="fill:#A8A8A8;" d="M588.372,615.296c-0.33,4.484-6.27,6.45-9.079,3.005c-2.213-2.714-0.673-7.138,3.875-7.775
					C587.012,610.354,588.525,613.212,588.372,615.296"/>
				<path style="fill:#A8A8A8;" d="M641.659,610.739c-0.311,2.464-3.612,3.512-4.974,1.578c-0.99-1.404-0.222-4.028,2.343-4.342
					C641.089,607.929,641.808,609.563,641.659,610.739"/>
				<path style="fill:#A8A8A8;" d="M692.411,607.388c-0.095,0.532-0.743,0.763-1.035,0.368c-0.256-0.345-0.026-0.939,0.511-0.994
					C692.35,606.761,692.455,607.145,692.411,607.388"/>
				<path style="fill:#A8A8A8;" d="M164.263,762.767c0.682,0.867,1.729,2.216,1.818,2.378c-0.217-0.181-3.266-4.08-3.582-4.549
					c-0.004-0.007-0.009-0.016-0.012-0.023C162.636,760.698,164.097,762.556,164.263,762.767"/>
				<path style="fill:#A8A8A8;" d="M165.067,755.846c1.683,2.23,2.65,4.061,2.11,3.998c-0.853-0.099-6.003-6.318-5.687-7.521
					C161.876,751.996,163.814,754.186,165.067,755.846"/>
				<path style="fill:#A8A8A8;" d="M174.295,748.148c2.28,3.214,2.971,5.792,1.449,5.407c-2.417-0.611-8.555-8.527-6.983-10.065
					C169.949,742.998,172.712,745.917,174.295,748.148"/>
				<path style="fill:#A8A8A8;" d="M191.476,739.835c2.594,3.978,2.729,7.199,0.284,6.757c-4.309-0.779-10.619-10.339-8.134-12.324
					c0.07-0.056,0.179-0.107,0.256-0.153C186.121,733.461,189.67,737.066,191.476,739.835"/>
				<path style="fill:#A8A8A8;" d="M216.06,731.083c2.816,4.821,1.853,8.735-1.907,7.755c-5.879-1.532-11.753-11.983-7.956-14.156
					c0.117-0.067,0.287-0.127,0.41-0.182C210.015,723.71,214.186,727.874,216.06,731.083"/>
				<path style="fill:#A8A8A8;" d="M247.541,722.055c2.879,5.675,0.422,10.066-4.695,8.391c-7.114-2.33-11.919-13.155-6.856-15.444
					c0.165-0.075,0.398-0.142,0.568-0.203C241.145,713.912,245.741,718.508,247.541,722.055"/>
				<path style="fill:#A8A8A8;" d="M285.185,712.935c2.651,6.255-1.455,10.794-7.573,8.373c-7.625-3.017-10.836-13.408-4.839-15.66
					c0.203-0.076,0.486-0.146,0.694-0.208C278.972,704.528,283.633,709.273,285.185,712.935"/>
				<path style="fill:#A8A8A8;" d="M328.688,703.847c2.187,6.553-3.674,11.096-10.282,7.97c-7.562-3.579-9.085-13.151-2.432-15.287
					c0.234-0.075,0.555-0.143,0.793-0.205C322.963,695.44,327.468,700.19,328.688,703.847"/>
				<path style="fill:#A8A8A8;" d="M377.448,694.949c1.563,6.537-5.773,10.776-12.265,7.087c-6.677-3.794-6.646-12.224,0.052-14.093
					c0.248-0.069,0.586-0.132,0.837-0.188C372.541,686.957,376.618,691.482,377.448,694.949"/>
				<path style="fill:#A8A8A8;" d="M429.938,686.536c0.91,6.125-6.889,9.698-12.455,5.707c-4.925-3.532-4.296-10.84,2.747-12.242
					C426.165,679.385,429.48,683.451,429.938,686.536"/>
				<path style="fill:#A8A8A8;" d="M483.018,679.087c0.342,5.436-6.905,8.142-11.077,4.138c-3.333-3.199-2.15-8.685,3.58-9.704
					C480.424,673.109,482.857,676.528,483.018,679.087"/>
				<path style="fill:#A8A8A8;" d="M535.894,672.652c-0.083,4.203-5.684,6.165-8.561,3c-2.279-2.507-1.04-6.695,3.301-7.384
					C534.327,668.03,535.933,670.689,535.894,672.652"/>
				<path style="fill:#A8A8A8;" d="M587.627,667.274c-0.257,2.647-3.743,3.805-5.33,1.771c-1.128-1.446-0.394-4.212,2.379-4.603
					C586.911,664.345,587.747,666.039,587.627,667.274"/>
				<path style="fill:#A8A8A8;" d="M637.631,662.979c-0.16,0.934-1.36,1.313-1.835,0.58c-0.37-0.571,0.049-1.498,0.931-1.606
					C637.474,661.936,637.705,662.543,637.631,662.979"/>
				<path style="fill:#A8A8A8;" d="M200.778,803.383c0.248,0.244,0.625,0.623,0.646,0.67c-0.104-0.049-1.209-1.146-1.307-1.279
					c-0.001-0.002-0.002-0.005-0.003-0.007C200.184,802.801,200.717,803.324,200.778,803.383"/>
				<path style="fill:#A8A8A8;" d="M201.239,797.093c1.07,1.092,1.708,1.992,1.393,1.964c-0.495-0.044-3.732-3.079-3.604-3.674
					C199.236,795.217,200.446,796.283,201.239,797.093"/>
				<path style="fill:#A8A8A8;" d="M209.365,790.094c1.572,1.706,2.242,3.124,1.463,3.098c-1.214-0.041-6.25-4.756-5.295-5.726
					C206.241,787.179,208.2,788.83,209.365,790.094"/>
				<path style="fill:#A8A8A8;" d="M224.725,782.531c1.929,2.277,2.397,4.184,1.023,4.164c-2.735-0.039-8.222-6.244-6.671-7.544
					c0.042-0.035,0.109-0.066,0.155-0.095C220.646,778.649,223.295,780.843,224.725,782.531"/>
				<path style="fill:#A8A8A8;" d="M246.901,774.555c2.273,2.996,2.172,5.439-0.214,5.127c-3.892-0.509-9.32-7.229-7.352-9.101
					c0.122-0.116,0.33-0.214,0.483-0.282C242.081,769.778,245.322,772.474,246.901,774.555"/>
				<path style="fill:#A8A8A8;" d="M275.195,766.342c2.308,3.497,1.339,6.244-1.957,5.544c-4.919-1.044-9.548-7.89-6.694-9.899
					c0.183-0.129,0.468-0.235,0.679-0.311C270.217,761.101,273.687,764.058,275.195,766.342"/>
				<path style="fill:#A8A8A8;" d="M309.393,758.006c2.155,3.907,0.072,6.924-3.98,5.765c-5.348-1.53-8.984-8.447-5.479-10.423
					c0.242-0.137,0.601-0.249,0.867-0.329C304.494,752.41,308.048,755.569,309.393,758.006"/>
				<path style="fill:#A8A8A8;" d="M348.852,749.706c1.817,4.163-1.357,7.159-5.855,5.527c-5.353-1.942-7.648-8.335-3.664-10.21
					c0.285-0.134,0.694-0.244,0.999-0.323C344.447,744.116,347.791,747.276,348.852,749.706"/>
				<path style="fill:#A8A8A8;" d="M393.134,741.572c1.342,4.253-3.247,7.005-7.672,4.601c-4.546-2.47-4.924-7.948-0.632-9.158
					c0.159-0.045,0.376-0.085,0.538-0.121C389.545,736.381,392.424,739.32,393.134,741.572"/>
				<path style="fill:#A8A8A8;" d="M441.113,733.845c0.765,3.881-4.053,6.137-7.694,3.604c-3.219-2.24-3.045-6.866,1.361-7.747
					C438.51,729.318,440.729,731.894,441.113,733.845"/>
				<path style="fill:#A8A8A8;" d="M489.845,726.992c0.271,3.164-3.758,4.909-6.434,2.787c-2.35-1.863-1.797-5.597,1.773-6.235
					C488.174,723.295,489.709,725.41,489.845,726.992"/>
				<path style="fill:#A8A8A8;" d="M538.133,721.077c-0.046,2.199-2.925,3.219-4.401,1.559c-1.05-1.181-0.61-3.489,1.714-3.859
					C537.335,718.656,538.155,720.05,538.133,721.077"/>
				<path style="fill:#A8A8A8;" d="M585.57,716.122c-0.106,0.866-1.233,1.242-1.723,0.574c-0.381-0.52-0.028-1.386,0.809-1.505
					C585.368,715.161,585.619,715.718,585.57,716.122"/>
				<polyline style="fill:#A8A8A8;" points="632.053,712.316 631.94,712.194 632.084,712.053 632.197,712.175 632.053,712.316 				
					"/>
				<path style="fill:#A8A8A8;" d="M242.273,833.291c0.269,0.212,0.444,0.391,0.398,0.408c-0.07,0.026-0.99-0.609-0.967-0.752
					C241.753,832.91,242.079,833.138,242.273,833.291"/>
				<path style="fill:#A8A8A8;" d="M249.203,827.104c0.695,0.583,1.073,1.099,0.843,1.15c-0.523,0.116-2.803-1.713-2.595-2.083
					c0.005-0.009,0.017-0.018,0.024-0.025C247.75,826.038,248.651,826.641,249.203,827.104"/>
				<path style="fill:#A8A8A8;" d="M262.563,820.409c1.159,1.059,1.551,1.949,0.856,1.944c-1.383-0.011-4.64-2.888-3.961-3.498
					c0.019-0.017,0.05-0.031,0.071-0.044C260.206,818.619,261.711,819.63,262.563,820.409"/>
				<path style="fill:#A8A8A8;" d="M281.887,813.35c1.36,1.39,1.595,2.561,0.513,2.557c-2.024-0.008-5.754-3.504-4.808-4.507
					c0.055-0.059,0.156-0.106,0.23-0.14C278.962,811.002,280.885,812.327,281.887,813.35"/>
				<path style="fill:#A8A8A8;" d="M306.853,806.051c1.518,1.785,1.347,3.245-0.358,3.063c-2.776-0.296-6.402-4.295-4.911-5.416
					c0.095-0.072,0.247-0.128,0.359-0.169C303.585,803.217,305.803,804.816,306.853,806.051"/>
				<path style="fill:#A8A8A8;" d="M336.908,798.654c1.416,1.995,0.678,3.612-1.463,3.204c-3.229-0.615-6.101-4.57-4.153-5.719
					c0.127-0.075,0.318-0.134,0.459-0.177C333.757,795.635,335.974,797.339,336.908,798.654"/>
				<path style="fill:#A8A8A8;" d="M371.746,791.275c1.185,2.103-0.134,3.711-2.52,3.072c-3.005-0.805-4.992-4.221-3.174-5.457
					c0.249-0.169,0.521-0.24,0.74-0.298C368.992,788.282,371.013,789.974,371.746,791.275"/>
				<path style="fill:#A8A8A8;" d="M410.996,784.027c0.878,2.143-1.148,3.602-3.553,2.559c-2.564-1.112-3.341-4.026-1.299-4.872
					c0.153-0.063,0.37-0.115,0.532-0.152C408.851,781.297,410.511,782.844,410.996,784.027"/>
				<path style="fill:#A8A8A8;" d="M453.663,777.124c0.47,1.824-1.588,2.96-3.441,1.899c-1.888-1.081-1.888-3.406,0.001-3.887
					c0.069-0.018,0.164-0.033,0.234-0.047C452.259,774.906,453.417,776.169,453.663,777.124"/>
				<path style="fill:#A8A8A8;" d="M496.946,770.994c0.147,1.255-1.372,1.933-2.425,1.084c-0.927-0.747-0.761-2.179,0.611-2.426
					C496.264,769.559,496.875,770.381,496.946,770.994"/>
				<path style="fill:#A8A8A8;" d="M540.136,765.693c-0.009,0.434-0.534,0.654-0.839,0.352c-0.263-0.261-0.143-0.745,0.31-0.818
					C539.939,765.208,540.14,765.454,540.136,765.693"/>
				<polyline style="fill:#A8A8A8;" points="293.568,858.763 293.416,858.699 293.311,858.604 293.463,858.668 293.568,858.763 				
					"/>
				<path style="fill:#A8A8A8;" d="M304.564,852.978c0.198,0.139,0.289,0.258,0.207,0.272c-0.181,0.031-0.829-0.399-0.737-0.489
					c0.002-0.002,0.007-0.004,0.01-0.006C304.148,852.726,304.418,852.876,304.564,852.978"/>
				<path style="fill:#A8A8A8;" d="M320.894,846.939c0.426,0.335,0.571,0.624,0.329,0.659c-0.488,0.07-1.849-0.896-1.636-1.161
					c0.013-0.016,0.038-0.028,0.057-0.037C319.947,846.334,320.558,846.675,320.894,846.939"/>
				<path style="fill:#A8A8A8;" d="M342.05,840.69c0.589,0.535,0.666,0.985,0.167,0.984c-0.929-0.002-2.543-1.344-2.081-1.729
					c0.028-0.023,0.075-0.041,0.11-0.054C340.774,839.792,341.619,840.298,342.05,840.69"/>
				<path style="fill:#A8A8A8;" d="M367.643,834.343c0.551,0.601,0.503,1.122-0.102,1.115c-1.051-0.011-2.586-1.432-2.079-1.924
					c0.06-0.058,0.14-0.083,0.205-0.103C366.352,833.321,367.235,833.898,367.643,834.343"/>
				<path style="fill:#A8A8A8;" d="M397.35,828.006c0.467,0.642,0.18,1.156-0.568,1.018c-1.057-0.195-1.981-1.364-1.412-1.787
					c0.073-0.054,0.158-0.077,0.226-0.095C396.301,827.044,397.046,827.589,397.35,828.006"/>
				<path style="fill:#A8A8A8;" d="M430.847,821.779c0.278,0.522-0.129,0.89-0.751,0.679c-0.73-0.248-1.075-1.045-0.551-1.273
					c0.037-0.016,0.09-0.029,0.13-0.038C430.217,821.082,430.687,821.478,430.847,821.779"/>
				<path style="fill:#A8A8A8;" d="M467.486,815.823c0.082,0.243-0.158,0.401-0.42,0.278c-0.277-0.13-0.337-0.457-0.1-0.546
					c0.018-0.007,0.042-0.012,0.061-0.016C467.269,815.514,467.441,815.69,467.486,815.823"/>
				<polyline style="fill:#A8A8A8;" points="505.088,810.616 504.957,810.528 505.035,810.411 505.167,810.5 505.088,810.616 				
					"/>
			</g>
		</g>
	</g>
</g>
</svg>
